<svg width="20" height="20" viewBox="0 0 20 20" fill="none" xmlns="http://www.w3.org/2000/svg">
<circle cx="10" cy="10" r="10" fill="#253458"/>
<path d="M4.70713 10.4852C4.31661 10.0947 4.31661 9.46149 4.70713 9.07097C5.09765 8.68045 5.73082 8.68045 6.12134 9.07097L9.65688 12.6065C10.0474 12.997 10.0474 13.6302 9.65688 14.0207C9.26635 14.4112 8.63319 14.4112 8.24266 14.0207L4.70713 10.4852Z" fill="white"/>
<path d="M14.6066 6.24275C14.9972 5.85223 15.6303 5.85223 16.0208 6.24275C16.4114 6.63328 16.4114 7.26644 16.0208 7.65697L9.65688 14.0209C9.26636 14.4115 8.63319 14.4115 8.24267 14.0209C7.85214 13.6304 7.85214 12.9972 8.24267 12.6067L14.6066 6.24275Z" fill="white"/>
</svg>
